<svg width="17" height="22" viewBox="0 0 17 22" fill="none" xmlns="http://www.w3.org/2000/svg">
<path d="M13.75 0.303711H3.25C2.45435 0.303711 1.69129 0.619781 1.12868 1.18239C0.56607 1.745 0.25 2.50806 0.25 3.30371V15.3037C0.25 16.0994 0.56607 16.8624 1.12868 17.425C1.69129 17.9876 2.45435 18.3037 3.25 18.3037H4L2.65 20.1037C2.5909 20.1825 2.54791 20.2722 2.52346 20.3676C2.49902 20.463 2.49361 20.5623 2.50754 20.6598C2.52147 20.7573 2.55446 20.8511 2.60464 20.9358C2.65482 21.0206 2.72121 21.0946 2.8 21.1537C2.87879 21.2128 2.96845 21.2558 3.06386 21.2802C3.15927 21.3047 3.25856 21.3101 3.35607 21.2962C3.45357 21.2822 3.54737 21.2492 3.63212 21.1991C3.71687 21.1489 3.79091 21.0825 3.85 21.0037L5.875 18.3037H11.125L13.15 21.0037C13.2693 21.1628 13.447 21.268 13.6439 21.2962C13.8408 21.3243 14.0409 21.2731 14.2 21.1537C14.3591 21.0344 14.4643 20.8567 14.4925 20.6598C14.5206 20.4629 14.4693 20.2628 14.35 20.1037L13 18.3037H13.75C14.5456 18.3037 15.3087 17.9876 15.8713 17.425C16.4339 16.8624 16.75 16.0994 16.75 15.3037V3.30371C16.75 2.50806 16.4339 1.745 15.8713 1.18239C15.3087 0.619781 14.5456 0.303711 13.75 0.303711ZM1.75 9.30371V5.55371H7.75V9.30371H1.75ZM9.25 5.55371H15.25V9.30371H9.25V5.55371ZM3.25 1.80371H13.75C14.1478 1.80371 14.5294 1.96175 14.8107 2.24305C15.092 2.52436 15.25 2.90589 15.25 3.30371V4.05371H1.75V3.30371C1.75 2.90589 1.90804 2.52436 2.18934 2.24305C2.47064 1.96175 2.85218 1.80371 3.25 1.80371ZM13.75 16.8037H3.25C2.85218 16.8037 2.47064 16.6457 2.18934 16.3644C1.90804 16.0831 1.75 15.7015 1.75 15.3037V10.8037H15.25V15.3037C15.25 15.7015 15.092 16.0831 14.8107 16.3644C14.5294 16.6457 14.1478 16.8037 13.75 16.8037ZM5.5 14.1787C5.5 14.4012 5.43402 14.6187 5.3104 14.8037C5.18679 14.9887 5.01109 15.1329 4.80552 15.2181C4.59995 15.3032 4.37375 15.3255 4.15552 15.2821C3.93729 15.2387 3.73684 15.1315 3.5795 14.9742C3.42217 14.8169 3.31502 14.6164 3.27162 14.3982C3.22821 14.18 3.25049 13.9538 3.33564 13.7482C3.42078 13.5426 3.56498 13.3669 3.74998 13.2433C3.93499 13.1197 4.1525 13.0537 4.375 13.0537C4.67337 13.0537 4.95952 13.1722 5.1705 13.3832C5.38147 13.5942 5.5 13.8803 5.5 14.1787ZM13.75 14.1787C13.75 14.4012 13.684 14.6187 13.5604 14.8037C13.4368 14.9887 13.2611 15.1329 13.0555 15.2181C12.85 15.3032 12.6238 15.3255 12.4055 15.2821C12.1873 15.2387 11.9868 15.1315 11.8295 14.9742C11.6722 14.8169 11.565 14.6164 11.5216 14.3982C11.4782 14.18 11.5005 13.9538 11.5856 13.7482C11.6708 13.5426 11.815 13.3669 12 13.2433C12.185 13.1197 12.4025 13.0537 12.625 13.0537C12.9234 13.0537 13.2095 13.1722 13.4205 13.3832C13.6315 13.5942 13.75 13.8803 13.75 14.1787Z" fill="url(#paint0_linear_45_522)"/>
<defs>
<linearGradient id="paint0_linear_45_522" x1="8.5" y1="0.303711" x2="8.5" y2="21.3037" gradientUnits="userSpaceOnUse">
<stop stop-color="#FF6262"/>
<stop offset="0.515"/>
<stop offset="1" stop-color="#5768FF"/>
</linearGradient>
</defs>
</svg>
