<svg width="20" height="21" viewBox="0 0 20 21" fill="none" xmlns="http://www.w3.org/2000/svg">
<path d="M14.2806 7.77309C14.3504 7.84274 14.4057 7.92546 14.4434 8.01651C14.4812 8.10755 14.5006 8.20515 14.5006 8.30371C14.5006 8.40227 14.4812 8.49987 14.4434 8.59092C14.4057 8.68196 14.3504 8.76468 14.2806 8.83434L9.03063 14.0843C8.96097 14.1541 8.87826 14.2094 8.78721 14.2471C8.69616 14.2849 8.59857 14.3043 8.5 14.3043C8.40144 14.3043 8.30385 14.2849 8.2128 14.2471C8.12175 14.2094 8.03903 14.1541 7.96938 14.0843L5.71938 11.8343C5.57865 11.6936 5.49959 11.5027 5.49959 11.3037C5.49959 11.1047 5.57865 10.9138 5.71938 10.7731C5.86011 10.6324 6.05098 10.5533 6.25 10.5533C6.44903 10.5533 6.6399 10.6324 6.78063 10.7731L8.5 12.4934L13.2194 7.77309C13.289 7.70335 13.3718 7.64803 13.4628 7.61029C13.5538 7.57255 13.6514 7.55312 13.75 7.55312C13.8486 7.55312 13.9462 7.57255 14.0372 7.61029C14.1283 7.64803 14.211 7.70335 14.2806 7.77309ZM19.75 10.5537C19.75 12.4821 19.1782 14.3671 18.1068 15.9705C17.0355 17.5739 15.5127 18.8236 13.7312 19.5615C11.9496 20.2995 9.98919 20.4926 8.09787 20.1164C6.20656 19.7402 4.46928 18.8116 3.10571 17.448C1.74215 16.0844 0.813554 14.3472 0.437348 12.4558C0.061142 10.5645 0.254225 8.60413 0.992179 6.82255C1.73013 5.04097 2.97982 3.51823 4.58319 2.44688C6.18657 1.37554 8.07164 0.803711 10 0.803711C12.585 0.806441 15.0634 1.83455 16.8913 3.66243C18.7192 5.49032 19.7473 7.96869 19.75 10.5537ZM18.25 10.5537C18.25 8.92202 17.7661 7.32696 16.8596 5.97026C15.9531 4.61355 14.6646 3.55613 13.1571 2.9317C11.6497 2.30728 9.99085 2.1439 8.39051 2.46223C6.79017 2.78056 5.32016 3.5663 4.16637 4.72008C3.01259 5.87386 2.22685 7.34387 1.90853 8.94422C1.5902 10.5446 1.75358 12.2034 2.378 13.7108C3.00242 15.2183 4.05984 16.5068 5.41655 17.4133C6.77326 18.3199 8.36831 18.8037 10 18.8037C12.1873 18.8012 14.2843 17.9312 15.8309 16.3846C17.3775 14.838 18.2475 12.741 18.25 10.5537Z" fill="url(#paint0_linear_44_472)"/>
<defs>
<linearGradient id="paint0_linear_44_472" x1="10" y1="0.803711" x2="10" y2="20.3037" gradientUnits="userSpaceOnUse">
<stop stop-color="#FF6262"/>
<stop offset="0.515"/>
<stop offset="1" stop-color="#5768FF"/>
</linearGradient>
</defs>
</svg>
