<svg width="14" height="15" viewBox="0 0 14 15" fill="none" xmlns="http://www.w3.org/2000/svg">
<path d="M12.7145 4.95561L5.71452 11.9556C5.65355 12.0168 5.5811 12.0653 5.50134 12.0985C5.42157 12.1316 5.33605 12.1486 5.24967 12.1486C5.1633 12.1486 5.07778 12.1316 4.99801 12.0985C4.91824 12.0653 4.8458 12.0168 4.78483 11.9556L1.72233 8.89311C1.66129 8.83207 1.61286 8.7596 1.57983 8.67984C1.54679 8.60008 1.52979 8.5146 1.52979 8.42827C1.52979 8.34194 1.54679 8.25645 1.57983 8.1767C1.61286 8.09694 1.66129 8.02447 1.72233 7.96342C1.78337 7.90238 1.85584 7.85396 1.9356 7.82092C2.01536 7.78788 2.10084 7.77088 2.18717 7.77088C2.2735 7.77088 2.35899 7.78788 2.43875 7.82092C2.5185 7.85396 2.59097 7.90238 2.65202 7.96342L5.25022 10.5616L11.7859 4.02702C11.9092 3.90373 12.0764 3.83447 12.2508 3.83447C12.4251 3.83447 12.5923 3.90373 12.7156 4.02702C12.8389 4.1503 12.9082 4.31751 12.9082 4.49186C12.9082 4.66621 12.8389 4.83342 12.7156 4.9567L12.7145 4.95561Z" fill="#6368F4"/>
</svg>
