<svg width="23" height="18" viewBox="0 0 23 18" fill="none" xmlns="http://www.w3.org/2000/svg">
<path d="M16.75 5.4509V4.92871C16.75 2.57746 13.2034 0.803711 8.5 0.803711C3.79656 0.803711 0.25 2.57746 0.25 4.92871V8.67871C0.25 10.6371 2.71094 12.1934 6.25 12.6593V13.1787C6.25 15.53 9.79656 17.3037 14.5 17.3037C19.2034 17.3037 22.75 15.53 22.75 13.1787V9.42871C22.75 7.48809 20.3669 5.92996 16.75 5.4509ZM21.25 9.42871C21.25 10.6681 18.3634 12.0537 14.5 12.0537C14.1503 12.0537 13.8034 12.0415 13.4613 12.019C15.4834 11.2821 16.75 10.085 16.75 8.67871V6.96684C19.5503 7.38402 21.25 8.51652 21.25 9.42871ZM6.25 11.1396V8.90934C6.99604 9.00655 7.74765 9.05477 8.5 9.05371C9.25235 9.05477 10.004 9.00655 10.75 8.90934V11.1396C10.0051 11.2497 9.25302 11.3045 8.5 11.3037C7.74698 11.3045 6.99493 11.2497 6.25 11.1396ZM15.25 7.35965V8.67871C15.25 9.46527 14.0866 10.31 12.25 10.8228V8.63184C13.4603 8.3384 14.485 7.90152 15.25 7.35965ZM8.5 2.30371C12.3634 2.30371 15.25 3.68934 15.25 4.92871C15.25 6.16809 12.3634 7.55371 8.5 7.55371C4.63656 7.55371 1.75 6.16809 1.75 4.92871C1.75 3.68934 4.63656 2.30371 8.5 2.30371ZM1.75 8.67871V7.35965C2.515 7.90152 3.53969 8.3384 4.75 8.63184V10.8228C2.91344 10.31 1.75 9.46527 1.75 8.67871ZM7.75 13.1787V12.7878C7.99656 12.7971 8.24594 12.8037 8.5 12.8037C8.86375 12.8037 9.21906 12.7915 9.56781 12.7709C9.95524 12.9096 10.3499 13.0273 10.75 13.1234V15.3228C8.91344 14.81 7.75 13.9653 7.75 13.1787ZM12.25 15.6396V13.4037C12.9958 13.504 13.7475 13.5541 14.5 13.5537C15.2523 13.5548 16.004 13.5065 16.75 13.4093V15.6396C15.258 15.8584 13.742 15.8584 12.25 15.6396ZM18.25 15.3228V13.1318C19.4603 12.8384 20.485 12.4015 21.25 11.8596V13.1787C21.25 13.9653 20.0866 14.81 18.25 15.3228Z" fill="url(#paint0_linear_45_516)"/>
<defs>
<linearGradient id="paint0_linear_45_516" x1="11.5" y1="0.803711" x2="11.5" y2="17.3037" gradientUnits="userSpaceOnUse">
<stop stop-color="#FF6262"/>
<stop offset="0.515"/>
<stop offset="1" stop-color="#5768FF"/>
</linearGradient>
</defs>
</svg>
