<svg width="18" height="19" viewBox="0 0 18 19" fill="none" xmlns="http://www.w3.org/2000/svg">
<path d="M9 2.24121C7.55373 2.24121 6.13993 2.67008 4.9374 3.47359C3.73486 4.2771 2.7976 5.41915 2.24413 6.75534C1.69067 8.09152 1.54586 9.56182 1.82801 10.9803C2.11017 12.3988 2.80661 13.7018 3.82928 14.7244C4.85196 15.7471 6.15492 16.4435 7.57341 16.7257C8.99189 17.0079 10.4622 16.863 11.7984 16.3096C13.1346 15.7561 14.2766 14.8189 15.0801 13.6163C15.8836 12.4138 16.3125 11 16.3125 9.55371C16.3105 7.61494 15.5394 5.75617 14.1685 4.38525C12.7975 3.01434 10.9388 2.24326 9 2.24121ZM8.71875 5.61621C8.88563 5.61621 9.04876 5.6657 9.18752 5.75841C9.32627 5.85112 9.43441 5.9829 9.49828 6.13707C9.56214 6.29125 9.57885 6.4609 9.54629 6.62457C9.51373 6.78824 9.43337 6.93858 9.31537 7.05658C9.19737 7.17458 9.04703 7.25494 8.88336 7.2875C8.71969 7.32006 8.55004 7.30335 8.39586 7.23948C8.24169 7.17562 8.10991 7.06748 8.0172 6.92872C7.92449 6.78997 7.875 6.62684 7.875 6.45996C7.875 6.23618 7.9639 6.02157 8.12213 5.86334C8.28037 5.70511 8.49498 5.61621 8.71875 5.61621ZM9.5625 13.4912C9.26413 13.4912 8.97799 13.3727 8.76701 13.1617C8.55603 12.9507 8.4375 12.6646 8.4375 12.3662V9.55371C8.28832 9.55371 8.14525 9.49445 8.03976 9.38896C7.93427 9.28347 7.875 9.1404 7.875 8.99121C7.875 8.84203 7.93427 8.69895 8.03976 8.59346C8.14525 8.48797 8.28832 8.42871 8.4375 8.42871C8.73587 8.42871 9.02202 8.54724 9.233 8.75822C9.44398 8.96919 9.5625 9.25534 9.5625 9.55371V12.3662C9.71169 12.3662 9.85476 12.4255 9.96025 12.531C10.0657 12.6365 10.125 12.7795 10.125 12.9287C10.125 13.0779 10.0657 13.221 9.96025 13.3265C9.85476 13.4319 9.71169 13.4912 9.5625 13.4912Z" fill="#6368F4"/>
</svg>
