<svg width="42" height="42" viewBox="0 0 42 42" fill="none" xmlns="http://www.w3.org/2000/svg">
<path d="M20.5269 0C16.4671 0 12.4984 1.20388 9.12276 3.4594C5.74714 5.71492 3.11615 8.92078 1.56252 12.6716C0.00889408 16.4224 -0.397607 20.5496 0.394427 24.5315C1.18646 28.5133 3.14146 32.1708 6.01219 35.0416C8.88293 37.9123 12.5405 39.8673 16.5223 40.6593C20.5041 41.4514 24.6314 41.0449 28.3822 39.4912C32.133 37.9376 35.3388 35.3066 37.5944 31.931C39.8499 28.5554 41.0538 24.5867 41.0538 20.5269C41.0475 15.0847 38.8828 9.86728 35.0347 6.01911C31.1865 2.17093 25.969 0.00626855 20.5269 0ZM37.8958 20.5269C37.8968 21.7513 37.7678 22.9714 37.5116 24.1665C37.3713 24.8209 36.7767 25.2638 36.1075 25.2638H31.3829C30.4654 25.2638 29.7664 24.4456 29.8551 23.5324C30.0494 21.5334 30.0494 19.5203 29.8551 17.5213C29.7664 16.6081 30.4654 15.7899 31.3829 15.7899H36.1075C36.7767 15.7899 37.3713 16.2329 37.5116 16.8872C37.7678 18.0824 37.8968 19.3024 37.8958 20.5269ZM16.0712 30.3271C15.6931 29.3951 16.4117 28.4218 17.4175 28.4218H23.637C24.6425 28.4218 25.3611 29.3948 24.9833 30.3267C24.14 32.4066 22.9928 34.351 21.5786 36.0957C21.0329 36.769 20.021 36.7688 19.4755 36.0955C18.0619 34.3506 16.9149 32.4066 16.0712 30.3271ZM15.8855 25.2638C15.1573 25.2638 14.5303 24.7402 14.4389 24.0177C14.1455 21.6998 14.1455 19.354 14.4389 17.036C14.5303 16.3136 15.1573 15.7899 15.8855 15.7899H25.1841C25.9123 15.7899 26.5392 16.3136 26.6307 17.036C26.9241 19.354 26.9241 21.6998 26.6307 24.0177C26.5392 24.7402 25.9123 25.2638 25.1841 25.2638H15.8855ZM3.15799 20.5269C3.15694 19.3024 3.28595 18.0824 3.54218 16.8872C3.68246 16.2329 4.27702 15.7899 4.94622 15.7899H9.67084C10.5884 15.7899 11.2874 16.6081 11.1986 17.5213C11.0044 19.5203 11.0044 21.5334 11.1986 23.5324C11.2874 24.4456 10.5884 25.2638 9.67084 25.2638H4.94622C4.27702 25.2638 3.68246 24.8209 3.54218 24.1665C3.28595 22.9714 3.15694 21.7513 3.15799 20.5269ZM24.9825 10.7266C25.3607 11.6586 24.642 12.6319 23.6363 12.6319H17.4168C16.4112 12.6319 15.6927 11.659 16.0705 10.7271C16.9138 8.64713 18.061 6.70279 19.4752 4.958C20.0208 4.28479 21.0327 4.28496 21.5782 4.95829C22.9918 6.70314 24.1389 8.64717 24.9825 10.7266ZM35.9872 12.6319H30.1001C29.425 12.6319 28.8377 12.1786 28.6325 11.5356C28.1472 10.0147 27.527 8.54245 26.7805 7.13591C26.1231 5.89725 27.1947 4.43217 28.4422 5.0725C29.4344 5.58178 30.3783 6.18659 31.2599 6.88017C33.2324 8.43203 34.8464 10.3916 35.9915 12.6249C35.9931 12.6281 35.9908 12.6319 35.9872 12.6319ZM12.6115 5.0725C13.8591 4.43217 14.9307 5.89725 14.2733 7.13591C13.5268 8.54245 12.9066 10.0148 12.4213 11.5356C12.216 12.1786 11.6287 12.6319 10.9537 12.6319H7.50687C6.3879 12.6319 5.67935 11.453 6.32387 10.5383C7.2946 9.16068 8.46258 7.92756 9.79387 6.88017C10.6754 6.18659 11.6193 5.58178 12.6115 5.0725ZM6.32387 30.5154C5.67935 29.6007 6.3879 28.4218 7.50687 28.4218H10.9537C11.6287 28.4218 12.216 28.8751 12.4213 29.5182C12.9066 31.039 13.5268 32.5113 14.2733 33.9178C14.9307 35.1565 13.8591 36.6216 12.6115 35.9812C11.6193 35.472 10.6754 34.8672 9.79387 34.1736C8.46258 33.1262 7.2946 31.8931 6.32387 30.5154ZM28.4422 35.9812C27.1947 36.6216 26.123 35.1565 26.7805 33.9178C27.527 32.5113 28.1472 31.039 28.6325 29.5182C28.8377 28.8751 29.425 28.4218 30.1001 28.4218H33.5469C34.6659 28.4218 35.3744 29.6007 34.7299 30.5154C33.7592 31.8931 32.5912 33.1262 31.2599 34.1736C30.3783 34.8672 29.4344 35.472 28.4422 35.9812Z" fill="url(#paint0_linear_8_574)"/>
<defs>
<linearGradient id="paint0_linear_8_574" x1="20.5269" y1="0" x2="20.5269" y2="41.0538" gradientUnits="userSpaceOnUse">
<stop stop-color="#FF6262"/>
<stop offset="0.515"/>
<stop offset="1" stop-color="#5768FF"/>
</linearGradient>
</defs>
</svg>
