<svg width="29" height="29" viewBox="0 0 29 29" fill="none" xmlns="http://www.w3.org/2000/svg">
<path d="M14.4509 0C11.5928 0 8.79887 0.847532 6.42243 2.43542C4.04598 4.02331 2.19377 6.28023 1.10002 8.92079C0.00626143 11.5614 -0.279915 14.467 0.277677 17.2702C0.835269 20.0734 2.21159 22.6483 4.23258 24.6693C6.25358 26.6903 8.82849 28.0666 11.6317 28.6242C14.4349 29.1818 17.3405 28.8956 19.9811 27.8018C22.6216 26.7081 24.8785 24.8559 26.4664 22.4794C28.0543 20.103 28.9018 17.309 28.9018 14.4509C28.8974 10.6197 27.3735 6.94657 24.6644 4.23745C21.9553 1.52833 18.2822 0.00441306 14.4509 0ZM26.6786 14.4509C26.6794 15.3129 26.5885 16.1718 26.4082 17.0132C26.3094 17.4739 25.8908 17.7857 25.4197 17.7857H22.0936C21.4476 17.7857 20.9555 17.2097 21.018 16.5668C21.1548 15.1595 21.1548 13.7423 21.018 12.335C20.9555 11.6921 21.4476 11.1161 22.0936 11.1161H25.4197C25.8908 11.1161 26.3094 11.428 26.4082 11.8886C26.5885 12.73 26.6794 13.5889 26.6786 14.4509ZM11.3141 21.3503C11.048 20.6942 11.5539 20.009 12.2619 20.009H16.6404C17.3483 20.009 17.8542 20.6939 17.5882 21.35C16.9945 22.8143 16.1869 24.1831 15.1913 25.4114C14.8072 25.8853 14.0948 25.8852 13.7108 25.4112C12.7156 24.1828 11.9081 22.8142 11.3141 21.3503ZM11.1834 17.7857C10.6707 17.7857 10.2294 17.4171 10.165 16.9085C9.95842 15.2766 9.95842 13.6252 10.165 11.9934C10.2294 11.4848 10.6707 11.1161 11.1834 11.1161H17.7296C18.2422 11.1161 18.6836 11.4848 18.748 11.9934C18.9546 13.6252 18.9546 15.2766 18.748 16.9085C18.6836 17.4171 18.2422 17.7857 17.7296 17.7857H11.1834ZM2.22322 14.4509C2.22249 13.5889 2.31331 12.73 2.49369 11.8886C2.59245 11.428 3.01102 11.1161 3.48214 11.1161H6.80827C7.45423 11.1161 7.94631 11.6921 7.88383 12.335C7.74708 13.7423 7.74708 15.1595 7.88383 16.5668C7.94631 17.2097 7.45423 17.7857 6.80827 17.7857H3.48214C3.01102 17.7857 2.59245 17.4739 2.49369 17.0132C2.31331 16.1718 2.22249 15.3129 2.22322 14.4509ZM17.5877 7.55154C17.8539 8.20766 17.348 8.89287 16.6399 8.89287H12.2614C11.5535 8.89287 11.0476 8.20791 11.3136 7.55186C11.9073 6.08758 12.715 4.71876 13.7105 3.49043C14.0947 3.0165 14.8071 3.01661 15.1911 3.49063C16.1862 4.71901 16.9938 6.08761 17.5877 7.55154ZM25.335 8.89287H21.1905C20.7152 8.89287 20.3018 8.57376 20.1573 8.12104C19.8156 7.05038 19.379 6.01389 18.8535 5.02368C18.3906 4.15167 19.145 3.12025 20.0233 3.57104C20.7219 3.92957 21.3863 4.35536 22.007 4.84364C23.3956 5.93615 24.5318 7.31571 25.338 8.88793C25.3392 8.89019 25.3375 8.89287 25.335 8.89287ZM8.87853 3.57104C9.75682 3.12025 10.5112 4.15167 10.0484 5.02368C9.52285 6.01389 9.08625 7.05038 8.74456 8.12104C8.60008 8.57376 8.18662 8.89287 7.7114 8.89287H5.28484C4.49708 8.89287 3.99826 8.06293 4.45201 7.41898C5.1354 6.44912 5.95766 5.581 6.89488 4.84364C7.51551 4.35536 8.18 3.92957 8.87853 3.57104ZM4.45201 21.4829C3.99826 20.8389 4.49708 20.009 5.28484 20.009H7.7114C8.18662 20.009 8.60008 20.3281 8.74456 20.7808C9.08625 21.8515 9.52285 22.888 10.0484 23.8782C10.5112 24.7502 9.75682 25.7816 8.87853 25.3308C8.18 24.9723 7.51551 24.5465 6.89488 24.0582C5.95766 23.3208 5.1354 22.4527 4.45201 21.4829ZM20.0233 25.3308C19.145 25.7816 18.3906 24.7502 18.8535 23.8782C19.379 22.888 19.8156 21.8515 20.1573 20.7808C20.3018 20.3281 20.7152 20.009 21.1905 20.009H23.617C24.4048 20.009 24.9036 20.8389 24.4498 21.4829C23.7665 22.4527 22.9442 23.3208 22.007 24.0582C21.3863 24.5465 20.7219 24.9723 20.0233 25.3308Z" fill="#838D92"/>
</svg>
