<?xml version="1.0" encoding="utf-8"?>
<!-- Generator: Adobe Illustrator 14.0.0, SVG Export Plug-In . SVG Version: 6.00 Build 43363)  -->
<!DOCTYPE svg PUBLIC "-//W3C//DTD SVG 1.1//EN" "http://www.w3.org/Graphics/SVG/1.1/DTD/svg11.dtd">
<svg version="1.1" xmlns="http://www.w3.org/2000/svg" xmlns:xlink="http://www.w3.org/1999/xlink" x="0px" y="0px" width="2272px"
	 height="1872px" viewBox="0 0 2272 1872" enable-background="new 0 0 2272 1872" xml:space="preserve">
<g id="back">
	<linearGradient id="SVGID_1_" gradientUnits="userSpaceOnUse" x1="1136.0005" y1="1873" x2="1136.0004" y2="4.882813e-004">
		<stop  offset="0" style="stop-color:#DEB850"/>
		<stop  offset="0.3026" style="stop-color:#F9DD67"/>
	</linearGradient>
	<rect fill="url(#SVGID_1_)" width="2272" height="1873"/>
</g>
<g id="_x31_">
	<g id="flower">
		<g>
			<g>
				<g>
					<path fill="#292C44" d="M1135.549,1665.342l-394.04-24.605c-91.396-5.708-179.563-40.748-262.052-104.146
						c-65.668-50.472-127.893-118.938-184.947-203.5c-96.925-143.654-146.115-286.25-146.601-287.674l14.197-4.843
						c0.48,1.407,49.143,142.382,145.024,284.402c87.977,130.312,234.914,288.275,435.314,300.79l394.04,24.606L1135.549,1665.342z"
						/>
				</g>
			</g>
			<g>
				<circle fill="#FFFFFF" cx="164.668" cy="993.281" r="51.362"/>
				<circle fill="#FFFFFF" cx="200.347" cy="1048.158" r="51.362"/>
				<circle fill="#FFFFFF" cx="134.258" cy="1086.396" r="51.362"/>
				<circle fill="#FFFFFF" cx="104.139" cy="1024.351" r="51.362"/>
			</g>
			<circle fill="#F794A3" cx="151.292" cy="1036.506" r="35.333"/>
		</g>
		<g>
			<g>
				<g>
					<path fill="#292C44" d="M1145.916,1794.975l2.083-14.855l369.01,51.759c187.597,26.313,353.298-92.017,459.27-195.917
						c115.417-113.161,186.877-234.039,187.586-235.246l12.938,7.588c-0.719,1.226-73.195,123.826-190.023,238.369
						c-68.778,67.435-139.3,119.003-209.605,153.273c-88.34,43.064-176.573,58.805-262.248,46.788L1145.916,1794.975z"/>
				</g>
			</g>
			<g>
				<circle fill="#FFFFFF" cx="2189.523" cy="1364.016" r="38.508"/>
				<circle fill="#FFFFFF" cx="2144.119" cy="1382.636" r="38.507"/>
				<circle fill="#FFFFFF" cx="2168.562" cy="1434.401" r="38.507"/>
				<circle fill="#FFFFFF" cx="2213.595" cy="1408.99" r="38.507"/>
			</g>
			<circle fill="#F794A3" cx="2182.318" cy="1402.354" r="30.015"/>
		</g>
		<g>
			<g>
				<g>
					<path fill="#292C44" d="M992.25,1660.538l-6.246-13.637l358.953-164.397c182.649-83.652,263.097-283.986,298.422-437.315
						c38.462-166.946,33.264-315.697,33.207-317.18l14.988-0.576c0.059,1.503,5.326,152.253-33.578,321.124
						c-22.901,99.404-56.406,185.644-99.583,256.321c-54.237,88.782-123.952,153.133-207.21,191.265L992.25,1660.538z"/>
				</g>
			</g>
			<g>
				<circle fill="#FFFFFF" cx="1677.713" cy="675.274" r="51.362"/>
				<circle fill="#FFFFFF" cx="1636.884" cy="726.434" r="51.362"/>
				<circle fill="#FFFFFF" cx="1698.956" cy="770.897" r="51.362"/>
				<circle fill="#FFFFFF" cx="1734.947" cy="712.064" r="51.362"/>
			</g>
			<circle fill="#F794A3" cx="1685.218" cy="720.33" r="35.333"/>
		</g>
		<g>
			<g>
				<g>
					<path fill="#292C44" d="M1089.415,1479.182l-323.742-184.493c-75.165-42.837-135.394-109.209-179.016-197.275
						c-34.715-70.087-59.033-153.999-72.277-249.406c-22.497-162.057-4.962-303.395-4.783-304.805l14.879,1.899
						c-0.177,1.392-17.473,141.041,4.807,301.173c20.435,146.877,79.322,341.639,243.817,435.381l323.743,184.493L1089.415,1479.182
						z"/>
				</g>
			</g>
			<g>
				<circle fill="#FFFFFF" cx="527.583" cy="503.044" r="40.927"/>
				<circle fill="#FFFFFF" cx="553.692" cy="548.195" r="40.927"/>
				<circle fill="#FFFFFF" cx="499.511" cy="575.875" r="40.927"/>
				<circle fill="#FFFFFF" cx="478.124" cy="525.251" r="40.927"/>
			</g>
			<circle fill="#F794A3" cx="516.583" cy="537.109" r="30.103"/>
		</g>
	</g>
	<g id="leaf_3_">
		<path fill="#1D435A" d="M2060.99,1189.068c-31.832-17.457-71.285,6.619-93.488,29.164c-18.168,18.449-32.854,40.213-52.042,57.598
			c-38.266,34.668-90.263,48.61-138.704,66.485c-48.441,17.876-98.646,44.184-120.118,91.142
			c-26.008,56.875,3.311,110.898,4.555,168.32c0.335,15.463-3.327,31.538-13.168,43.472c-15.847,19.217-41.651,21.561-63.327,30.525
			c-38.543,15.94-68.266,55.807-64.836,97.375c2.99,36.253,28.492,65.986,44.829,98.487c81.151-0.125,162.304-0.252,243.457-0.381
			c12.298-35.021-16.027-75.844,20.943-102.012c30.947-21.905,65.517-27.166,93.804-55.85c31.5-31.941,51.942-75.179,54.439-120.148
			c2.349-42.31-9.809-85.289-1.046-126.748c9.015-42.651,38.694-77.354,64.451-112.533c26.417-36.082,76.067-132.168,21.505-164.186
			C2061.827,1189.535,2061.41,1189.298,2060.99,1189.068z"/>
		<path fill="#336D2B" d="M1787.196,1556.694"/>
		<path fill="#15313F" d="M1701.979,1769.348c-18.223,38.89-34.533,74.111-47.26,101.745h20.815
			c12.183-26.396,27.229-58.825,43.854-94.296l108.179-72.658c4.327-2.905,5.475-8.738,2.571-13.094
			c-2.905-4.326-8.769-5.478-13.094-2.572l-82.035,55.099c24.084-51.071,50.406-106.138,75.572-157.288l96.789-53.011
			c4.571-2.503,6.247-8.238,3.744-12.81c-2.504-4.57-8.238-6.246-12.81-3.743l-73.105,40.039
			c39.554-79.343,74.39-144.521,90.349-162.515c3.459-3.899,3.099-9.865-0.799-13.321c-3.898-3.457-9.862-3.1-13.32,0.799
			c-17.325,19.536-54.361,88.846-95.782,172.003l-29.757-99.967c-1.492-5.001-6.742-7.839-11.736-6.352
			c-4.994,1.486-7.838,6.742-6.352,11.736l35.546,119.412c-26.262,53.309-53.642,110.624-78.435,163.261l-15.863-67.729
			c-1.191-5.075-6.267-8.226-11.34-7.037c-5.074,1.188-8.225,6.266-7.036,11.34L1701.979,1769.348z"/>
	</g>
	<g id="leaf_2_">
		<path fill="#1D435A" d="M206.972,1679.173c20.541,34.024,33.775,41.07,72.172,46.896c37.398,5.675,59.556,31.093,78.375,61.412
			c20.561,33.125,46.305,64.405,78.656,85.519h430.634c0.095-1.339-0.119-2.765-0.368-4.088
			c-8.073-42.82-16.145-85.64-24.217-128.46c-1.958-10.383-4.001-21.003-9.362-30.107c-18.281-31.048-63.747-44.325-97.426-39.954
			c-24.814,3.221-48.505,25.237-73.724,21.14c-15.639-2.541-26.805-16.158-34.946-28.617c-21.27-32.55-35.077-70.923-63.99-96.921
			c-7.118-6.4-14.902-11.773-23.178-16.186c-39.483-21.054-90.167-20.268-133.252-5.116c-32.556,11.45-73.806,42.403-109.686,37.869
			c-39.772-5.028-57.535-54.832-97.421-56.753c-29.451-1.418-69.183,1.293-80.822,33.782c-6.237,17.409-0.032,37.438,11.695,51.737
			C153.142,1639.411,187.149,1646.337,206.972,1679.173z"/>
		<path fill="#336D2B" d="M513.234,1708.505"/>
		<path fill="#15313F" d="M553.692,1823.035c-4.74,0.475-8.947-2.966-9.439-7.725c-0.473-4.739,2.986-8.966,7.725-9.439l89.88-8.976
			c-46.715-21.944-97.332-45.399-144.854-66.769l-99.056,19.041c-4.678,0.899-9.199-2.164-10.099-6.842
			c-0.899-4.678,2.164-9.199,6.842-10.099l74.817-14.382c-74.08-32.847-136.583-58.464-158.307-61.843
			c-4.707-0.731-7.928-5.144-7.197-9.849c0.732-4.706,5.141-7.928,9.849-7.196c23.583,3.668,90.044,30.915,167.661,65.36
			l-37.272-87.748c-1.862-4.392,0.183-9.449,4.567-11.311c4.384-1.862,9.448,0.184,11.311,4.566l44.521,104.818
			c49.552,22.251,102.225,46.674,150.35,69.308l-28.28-56.948c-2.117-4.269-0.377-9.444,3.888-11.562
			c4.267-2.119,9.443-0.377,11.562,3.889l37.979,76.479c78.709,37.209,140.296,67.197,146.947,70.439
			c0.376,0.183,0.726,0.396,1.063,0.625l-28.148,5.41c-25.141-12.158-72.233-34.832-127.785-61.086L553.692,1823.035z"/>
	</g>
	<g id="leaf_1_">
		<path fill="#32647A" d="M377.916,1290.843c-1.167,46.162-18.115,90.384-24.937,136.055
			c-8.986,60.164,2.731,126.656,40.196,173.007c7.853,9.715,16.837,18.545,26.999,26.246
			c41.275,31.281,94.938,39.692,142.861,59.328c18.343,7.516,38.961,18.698,46.217,38.515
			c11.701,31.956-11.139,68.479-9.112,101.745c0.904,14.838,4.622,30.862,10.81,46.262h290.452l-6.398-205.633
			c-10.722-13.095-29.046-17.652-39.532-31.148c-23.28-29.962-2.6-74.227-3.995-108.465c-1.625-39.896-14.098-79.438-36.478-112.575
			c-25.483-37.733-44.742-81.838-80.076-111.824c-31.814-26.999-74.795-36.002-110.063-57.472
			c-35.771-21.777-67.745-50.603-88.236-87.519c-26.614-47.944-53.298-108.985-103.918-136.438
			c-21.27-11.534-49.067-15.025-70.612-2.288c-39.569,23.394-33.126,76.044-23.866,114.21
			C351.241,1186.49,379.352,1234,377.916,1290.843z"/>
		<path fill="#336D2B" d="M594.122,1525.519"/>
		<path fill="#1D435A" d="M472.768,1499.855l148.294,31.878c41.564,59.219,86.752,121.974,128.458,179.229l-81.598-22.671
			c-6.116-1.695-12.448,1.881-14.145,7.993c-1.699,6.113,1.881,12.446,7.993,14.145l109.584,30.446
			c38.625,52.806,72.871,99.058,96.448,130.761h28.664c-23.133-31.077-62.112-83.646-106.975-144.994l-14.319-158.003
			c-0.571-6.32-6.129-10.956-12.478-10.404c-6.318,0.573-10.977,6.16-10.404,12.478l10.858,119.819
			c-40.449-55.585-83.854-115.895-123.754-172.681V1383.5c0-6.345-5.143-11.488-11.488-11.488c-6.345,0-11.488,5.144-11.488,11.488
			v101.477c-61.589-88.637-110.813-163.95-120.694-191.515c-2.14-5.973-8.721-9.077-14.69-6.937
			c-5.972,2.14-9.078,8.717-6.937,14.69c10.728,29.924,63.077,110.004,127.646,202.864l-124.145-26.688
			c-6.212-1.331-12.313,2.615-13.646,8.817C462.617,1492.412,466.565,1498.521,472.768,1499.855z"/>
	</g>
	<g id="leaf">
		<path fill="#336D2B" d="M1696.708,1195.639"/>
		<path fill="#32647A" d="M1628.344,1872c157.979-132.145,109.814-356.221,116.257-373.549
			c14.303-38.468,66.786-44.647,97.479-65.422c35.768-24.208,65.033-58.19,82.77-97.637c28.952-64.395,27.203-138.661,13.96-208.012
			c-5.061-26.497-11.733-53.582-6.887-80.118c6.934-37.966,35.288-66.327,58.711-95.101c27.617-33.927,45.938-74.079,61.852-114.663
			c9.727-24.804,17.926-50.979,16.398-77.578c-1.526-26.598-14.495-53.879-38.095-66.244
			c-44.04-23.074-88.795,12.825-118.624,43.069c-41.925,42.508-69.615,95.408-122.712,126.448
			c-43.119,25.208-93.438,34.795-139.325,54.522c-60.448,25.986-114.931,74.615-136.229,135.459
			c-4.465,12.753-7.472,26.042-8.77,39.772c-5.271,55.769,17.543,109.911,26.766,165.163c3.53,21.149,4.984,46.479-9.109,64.433
			c-22.729,28.954-69.322,28.74-98.763,49.542c-39.961,28.234-75.188,86.675-64.265,137.42
			c3.204,14.881,78.874,364.575,81.244,362.69"/>
		<path fill="#1D435A" d="M1760.119,1386.697c5.487-4.123,6.587-11.875,2.465-17.398c-4.123-5.484-11.914-6.589-17.398-2.465
			l-104.016,78.198c28.094-68.845,58.85-143.099,88.361-212.122l123.563-76.486c5.836-3.611,7.638-11.271,4.025-17.105
			c-3.611-5.835-11.27-7.638-17.105-4.025l-93.327,57.77c46.456-107.104,87.699-195.25,107.425-220.03
			c4.274-5.368,3.383-13.188-1.983-17.46c-5.368-4.273-13.186-3.386-17.461,1.983c-21.414,26.901-65.261,120.637-113.905,232.886
			l-46.129-129.369c-2.313-6.472-9.415-9.836-15.879-7.531c-6.463,2.306-9.834,9.415-7.53,15.879l55.105,154.533
			c-30.801,71.939-62.792,149.225-91.707,220.177l-25.603-87.952c-1.923-6.59-8.816-10.377-15.404-8.459
			c-6.59,1.919-10.376,8.815-8.458,15.404l34.384,118.116c-47.105,116.246-83.111,208.13-86.996,218.055
			c-0.22,0.561-0.383,1.129-0.517,1.699l35.112-21.735c14.779-37.42,42.563-107.405,75.816-189.441L1760.119,1386.697z"/>
	</g>
	<g id="women">
		<path fill="#F67280" d="M1081.277,806.707c0,0-226.872,56.62-298.322,186.288s-55.572,879.525-55.572,879.525l353.894-0.883
			V806.707z"/>
		<path fill="#222438" d="M1128.906,319.427c0,0,32.249-54.895,105.182-35.549s111.779,102.975,111.779,133.301
			s-15.594,95.544,29.988,115.96c67.914,30.419-1.104,99.999,35.496,132.727c87.318,78.081,19.629,173.319-71.659,246.751
			c-48.509,39.021-165.638,22.758-138.35-110.575c27.287-133.332,4.961-178.822-12.899-196.077
			C1170.582,588.712,1128.906,319.427,1128.906,319.427z"/>
		<path fill="#222438" d="M1175.537,327.487c0,0-32.249-52.089-105.181-33.732c-72.933,18.357-111.779,97.71-111.779,126.486
			s4.197,95.131-29.811,131.137c-54.241,57.427,3.527,101.239-33.074,132.294c-87.319,74.088-26.463,183.003,64.824,252.682
			c48.509,37.026,169.872-24.41,142.584-150.925s-4.961-169.68,12.9-186.053C1133.862,583.004,1175.537,327.487,1175.537,327.487z"
			/>
		<rect x="1081.277" y="765.914" fill="#292C44" width="135.446" height="714.994"/>
		<rect x="1081.277" y="1480.908" fill="#FBD8A2" width="135.446" height="143.377"/>
		<rect x="1081.277" y="1624.285" fill="#292C44" width="135.446" height="247.352"/>
		<path fill="#FBD8A2" d="M1200.191,825.123L1149,867.126l-51.192-42.003c-10.465-8.587-16.531-21.411-16.531-34.947V624.019
			h135.446v166.157C1216.723,803.712,1210.656,816.536,1200.191,825.123z"/>
		<path fill="#E2C093" d="M1081.277,703.724c17.724,16.424,41.443,26.469,67.512,26.469l0,0c26.276,0,50.166-10.204,67.934-26.86
			v-69.391h-135.446V703.724z"/>
		<path fill="#FBD8A2" d="M1148.789,697.447L1148.789,697.447c-54.875,0-99.359-44.485-99.359-99.36V489.15
			c0-54.875,44.485-99.36,99.359-99.36l0,0c54.875,0,99.36,44.485,99.36,99.36v108.937
			C1248.149,652.962,1203.664,697.447,1148.789,697.447z"/>
		<path fill="#222438" d="M1148.789,389.79c0,0-99.359,59.676-99.359,130.395c0,0-23.543-53.78-6.784-104.059
			C1059.405,365.848,1117.266,364.651,1148.789,389.79z"/>
		<path fill="#222438" d="M1148.789,389.79c0,0,84.596,59.942,99.36,159.259c0,0,54.845-143.411-4.39-179.609
			C1193.481,338.713,1151.981,377.021,1148.789,389.79z"/>
		<path fill="#A55D73" d="M863.942,906.049c-33.057,24.194-62.325,53.076-80.987,86.945
			c-71.45,129.668-55.572,879.525-55.572,879.525l136.56-0.341V906.049z"/>
		<g>
			<path fill="#F67280" d="M1434.058,906.049c-93.503-68.435-217.335-99.343-217.335-99.343v1064.93l217.335,0.542V906.049z"/>
			<path fill="#F67280" d="M1434.064,906.054"/>
		</g>
		<path fill="#F67280" d="M1210.089,485.557c-21.669,0-39.559,16.467-41.826,37.543h-44.919
			c-2.268-21.076-20.158-37.543-41.826-37.543c-23.2,0-42.074,18.875-42.074,42.074s18.875,42.074,42.074,42.074
			c21.668,0,39.559-16.466,41.826-37.543h44.919c2.268,21.077,20.157,37.543,41.826,37.543c23.2,0,42.074-18.874,42.074-42.074
			S1233.289,485.557,1210.089,485.557z M1081.518,555.705c-15.48,0-28.074-12.594-28.074-28.074s12.594-28.074,28.074-28.074
			s28.074,12.594,28.074,28.074S1096.998,555.705,1081.518,555.705z M1210.089,555.705c-15.48,0-28.074-12.594-28.074-28.074
			s12.594-28.074,28.074-28.074s28.074,12.594,28.074,28.074S1225.569,555.705,1210.089,555.705z"/>
		<path fill="#3B3E65" d="M1402.268,1303.625h-114.565c-5.385,0-9.75-4.365-9.75-9.75v-141.907c0-5.385,4.365-9.75,9.75-9.75
			h114.565c5.385,0,9.75,4.365,9.75,9.75v141.907C1412.018,1299.26,1407.652,1303.625,1402.268,1303.625z"/>
		<path fill="#C46073" d="M1411.817,1195.804l-62.442,30.968c-2.766,1.372-6.015,1.372-8.781,0l-62.442-30.968
			c-3.363-1.668-5.491-5.099-5.491-8.853v-34.851c0-5.458,4.425-9.883,9.882-9.883h124.885c5.458,0,9.883,4.425,9.883,9.883v34.851
			C1417.31,1190.705,1415.182,1194.136,1411.817,1195.804z"/>
		<circle fill="#3B3E65" cx="1344.985" cy="1190.729" r="12.348"/>
		<path fill="#3B3E65" d="M1009.397,1303.625H894.833c-5.385,0-9.75-4.365-9.75-9.75v-141.907c0-5.385,4.365-9.75,9.75-9.75h114.565
			c5.385,0,9.75,4.365,9.75,9.75v141.907C1019.147,1299.26,1014.782,1303.625,1009.397,1303.625z"/>
		<path fill="#C46073" d="M1018.948,1195.804l-62.443,30.968c-2.766,1.372-6.015,1.372-8.781,0l-62.442-30.968
			c-3.364-1.668-5.492-5.099-5.492-8.853v-34.851c0-5.458,4.424-9.883,9.882-9.883h124.885c5.458,0,9.882,4.425,9.882,9.883v34.851
			C1024.439,1190.705,1022.312,1194.136,1018.948,1195.804z"/>
		<circle fill="#3B3E65" cx="952.115" cy="1190.729" r="12.348"/>
		<path fill="#3B3E65" d="M1009.397,1809.896H894.833c-5.385,0-9.75-4.365-9.75-9.75v-178.951c0-5.385,4.365-9.75,9.75-9.75h114.565
			c5.385,0,9.75,4.365,9.75,9.75v178.951C1019.147,1805.531,1014.782,1809.896,1009.397,1809.896z"/>
		<path fill="#C46073" d="M1018.948,1652.655l-62.443,30.968c-2.766,1.372-6.015,1.372-8.781,0l-62.442-30.968
			c-3.364-1.668-5.492-5.099-5.492-8.853v-34.851c0-5.458,4.424-9.882,9.882-9.882h124.885c5.458,0,9.882,4.424,9.882,9.882v34.851
			C1024.439,1647.557,1022.312,1650.987,1018.948,1652.655z"/>
		<circle fill="#3B3E65" cx="952.115" cy="1647.58" r="12.348"/>
		<path fill="#3B3E65" d="M1402.268,1809.896h-114.565c-5.385,0-9.75-4.365-9.75-9.75v-178.951c0-5.385,4.365-9.75,9.75-9.75
			h114.565c5.385,0,9.75,4.365,9.75,9.75v178.951C1412.018,1805.531,1407.652,1809.896,1402.268,1809.896z"/>
		<path fill="#C46073" d="M1411.817,1652.655l-62.442,30.968c-2.766,1.372-6.015,1.372-8.781,0l-62.442-30.968
			c-3.363-1.668-5.491-5.099-5.491-8.853v-34.851c0-5.458,4.425-9.882,9.882-9.882h124.885c5.458,0,9.883,4.424,9.883,9.882v34.851
			C1417.31,1647.557,1415.182,1650.987,1411.817,1652.655z"/>
		<circle fill="#3B3E65" cx="1344.985" cy="1647.58" r="12.348"/>
		<polygon fill="#A55D73" points="1081.277,745.572 989.491,919.717 1058.95,1006.046 946.823,1184.656 1081.277,1580.575 		"/>
		<polygon fill="#A55D73" points="1216.763,744.69 1308.549,918.835 1239.09,1005.164 1351.217,1183.773 1216.763,1579.693 		"/>
		<ellipse fill="#E2C093" cx="1145.562" cy="1548.603" rx="3.438" ry="15.215"/>
		<path fill="#CE323D" d="M1145.804,607.396c-4.333-3.394-13.931-7.644-29.148,2.68h26.444h5.407h26.444
			C1159.733,599.751,1150.137,604.002,1145.804,607.396z"/>
		<path fill="#AF2C39" d="M1145.804,626.906c-19.446,5.512-21.651-5.844-29.148-16.831h26.444h5.407h26.444
			C1167.481,621.394,1164.945,632.639,1145.804,626.906z"/>
		<path fill="#E2C093" d="M1122.974,575.11c1.488,3.987,5.319,6.832,9.824,6.832c1.488,0,2.901-0.314,4.184-0.872
			c1.868,2.898,5.117,4.823,8.822,4.823c3.704,0,6.953-1.924,8.821-4.823c1.282,0.558,2.695,0.872,4.184,0.872
			c4.505,0,8.336-2.845,9.824-6.832H1122.974z"/>
		<circle fill="#E5D1D5" cx="1081.277" cy="527.631" r="33.167"/>
		<circle fill="#E5D1D5" cx="1210.032" cy="527.631" r="33.167"/>
		<path opacity="0.5" fill="#FFFFFF" d="M1210.032,527.631l23.452,23.452c-12.865,12.866-34.039,12.866-46.904,0
			c-12.866-12.866-12.866-34.039,0-46.905L1210.032,527.631z"/>
		<path opacity="0.5" fill="#FFFFFF" d="M1081.212,527.631l23.452,23.452c-12.866,12.866-34.039,12.866-46.905,0
			s-12.866-34.039,0-46.905L1081.212,527.631z"/>
		<path fill="#A55D73" d="M1434.064,906.054c0,0,200.033,144.031,213.517,412.517s-142.509,403.479-142.509,403.479l-71.015-104.384
			c0,0,100.727-135.197,88.728-295.123c-12-159.926-88.728-223.015-88.728-223.015L1434.064,906.054z"/>
		<path fill="#FBD8A2" d="M1497.33,1710.671L1449,1872.204h-19.75l4.258-129.984c0.205-7.524-8.743-11.587-14.272-6.48l0,0
			c-4.335,4.003-7.188,9.354-8.094,15.185l-4.294,27.625c-0.497,3.193-3.126,5.626-6.349,5.874l0,0
			c-4.045,0.312-7.499-2.887-7.499-6.944v-68.874c0-12.095,3.814-23.88,10.9-33.681l35.606-49.247L1497.33,1710.671z"/>
	</g>
</g>
</svg>
