<svg width="32" height="32" viewBox="0 0 32 32" fill="none" xmlns="http://www.w3.org/2000/svg">
<path d="M24 14.5C24 14.7967 23.912 15.0867 23.7472 15.3334C23.5824 15.58 23.3481 15.7723 23.074 15.8858C22.7999 15.9994 22.4983 16.0291 22.2074 15.9712C21.9164 15.9133 21.6491 15.7704 21.4393 15.5607C21.2296 15.3509 21.0867 15.0836 21.0288 14.7926C20.9709 14.5017 21.0006 14.2001 21.1142 13.926C21.2277 13.6519 21.42 13.4176 21.6666 13.2528C21.9133 13.088 22.2033 13 22.5 13C22.8978 13 23.2794 13.158 23.5607 13.4393C23.842 13.7206 24 14.1022 24 14.5ZM19 8H14C13.7348 8 13.4804 8.10536 13.2929 8.29289C13.1054 8.48043 13 8.73478 13 9C13 9.26522 13.1054 9.51957 13.2929 9.70711C13.4804 9.89464 13.7348 10 14 10H19C19.2652 10 19.5196 9.89464 19.7071 9.70711C19.8946 9.51957 20 9.26522 20 9C20 8.73478 19.8946 8.48043 19.7071 8.29289C19.5196 8.10536 19.2652 8 19 8ZM31 14V18C31 18.7956 30.6839 19.5587 30.1213 20.1213C29.5587 20.6839 28.7956 21 28 21H27.705L25.6787 26.6725C25.54 27.061 25.2845 27.3972 24.9473 27.6348C24.61 27.8725 24.2076 28 23.795 28H22.205C21.7924 28 21.3899 27.8725 21.0527 27.6348C20.7155 27.3972 20.46 27.061 20.3212 26.6725L20.0812 26H12.9187L12.6787 26.6725C12.54 27.061 12.2845 27.3972 11.9473 27.6348C11.6101 27.8725 11.2076 28 10.795 28H9.205C8.79243 28 8.38995 27.8725 8.05271 27.6348C7.71547 27.3972 7.45997 27.061 7.32125 26.6725L5.75 22.2775C4.25523 20.5857 3.31926 18.4737 3.07 16.23C2.74728 16.3995 2.47702 16.654 2.28844 16.9659C2.09985 17.2779 2.00011 17.6355 2 18C2 18.2652 1.89464 18.5196 1.70711 18.7071C1.51957 18.8946 1.26522 19 1 19C0.734783 19 0.48043 18.8946 0.292893 18.7071C0.105357 18.5196 0 18.2652 0 18C0.00152797 17.1082 0.301028 16.2425 0.850917 15.5404C1.40081 14.8383 2.16955 14.3401 3.035 14.125C3.2584 11.3692 4.51003 8.79811 6.54135 6.9224C8.57267 5.04669 11.2351 4.00351 14 4H27C27.2652 4 27.5196 4.10536 27.7071 4.29289C27.8946 4.48043 28 4.73478 28 5C28 5.26522 27.8946 5.51957 27.7071 5.70711C27.5196 5.89464 27.2652 6 27 6H24.3262C25.9858 7.16437 27.291 8.76504 28.0975 10.625C28.1512 10.75 28.2037 10.875 28.2537 11C29.0046 11.0637 29.704 11.4077 30.2129 11.9636C30.7217 12.5194 31.0027 13.2464 31 14ZM29 14C29 13.7348 28.8946 13.4804 28.7071 13.2929C28.5196 13.1054 28.2652 13 28 13H27.5425C27.3295 13.0002 27.122 12.9324 26.9503 12.8065C26.7785 12.6806 26.6514 12.5032 26.5875 12.3C26.0146 10.4717 24.8723 8.87428 23.3275 7.74093C21.7826 6.60759 19.916 5.99761 18 6H14C12.2534 5.99991 10.5445 6.50804 9.08171 7.46243C7.61891 8.41682 6.46543 9.77622 5.76191 11.3749C5.05839 12.9735 4.83524 14.7423 5.11967 16.4656C5.4041 18.1889 6.18382 19.7922 7.36375 21.08C7.45398 21.1781 7.52368 21.2933 7.56875 21.4188L9.205 26H10.795L11.2725 24.6637C11.3418 24.4696 11.4695 24.3016 11.638 24.1828C11.8065 24.0639 12.0076 24.0001 12.2137 24H20.7862C20.9924 24.0001 21.1935 24.0639 21.362 24.1828C21.5305 24.3016 21.6582 24.4696 21.7275 24.6637L22.205 26H23.795L26.0587 19.6637C26.1281 19.4696 26.2557 19.3016 26.4242 19.1828C26.5927 19.0639 26.7938 19.0001 27 19H28C28.2652 19 28.5196 18.8946 28.7071 18.7071C28.8946 18.5196 29 18.2652 29 18V14Z" fill="url(#paint0_linear_51_1870)"/>
<defs>
<linearGradient id="paint0_linear_51_1870" x1="15.5" y1="4" x2="15.5" y2="28" gradientUnits="userSpaceOnUse">
<stop stop-color="#FF6262"/>
<stop offset="0.515"/>
<stop offset="1" stop-color="#5768FF"/>
</linearGradient>
</defs>
</svg>
