<svg width="32" height="32" viewBox="0 0 32 32" fill="none" xmlns="http://www.w3.org/2000/svg">
<path d="M19 28.0001C19 28.2653 18.8947 28.5197 18.7071 28.7072C18.5196 28.8947 18.2652 29.0001 18 29.0001H14C13.7348 29.0001 13.4804 28.8947 13.2929 28.7072C13.1054 28.5197 13 28.2653 13 28.0001C13 27.7349 13.1054 27.4805 13.2929 27.293C13.4804 27.1055 13.7348 27.0001 14 27.0001H18C18.2652 27.0001 18.5196 27.1055 18.7071 27.293C18.8947 27.4805 19 27.7349 19 28.0001ZM16 14.0001C16.2967 14.0001 16.5867 13.9121 16.8334 13.7473C17.08 13.5825 17.2723 13.3482 17.3858 13.0741C17.4994 12.8 17.5291 12.4984 17.4712 12.2075C17.4133 11.9165 17.2704 11.6492 17.0607 11.4394C16.8509 11.2297 16.5836 11.0868 16.2926 11.0289C16.0017 10.971 15.7001 11.0007 15.426 11.1143C15.1519 11.2278 14.9176 11.4201 14.7528 11.6667C14.588 11.9134 14.5 12.2034 14.5 12.5001C14.5 12.8979 14.658 13.2795 14.9393 13.5608C15.2206 13.8421 15.6022 14.0001 16 14.0001ZM27.9525 19.4788L26.4075 26.4326C26.3342 26.7628 26.1784 27.069 25.9545 27.3227C25.7307 27.5763 25.4462 27.769 25.1277 27.8827C24.8091 27.9965 24.4669 28.0276 24.1331 27.9731C23.7992 27.9187 23.4846 27.7804 23.2188 27.5714L19.8138 25.0001H12.1888L8.78125 27.5714C8.51536 27.7804 8.20079 27.9187 7.86694 27.9731C7.5331 28.0276 7.1909 27.9965 6.87235 27.8827C6.5538 27.769 6.26931 27.5763 6.04548 27.3227C5.82165 27.069 5.6658 26.7628 5.5925 26.4326L4.0475 19.4788C3.98197 19.1804 3.98528 18.871 4.05718 18.5741C4.12909 18.2771 4.26771 18.0005 4.4625 17.7651L8.0325 13.4826C8.15232 11.9088 8.51364 10.3628 9.10375 8.89885C10.7163 4.85635 13.6038 2.32009 14.775 1.41759C15.1256 1.14595 15.5565 0.998535 16 0.998535C16.4435 0.998535 16.8744 1.14595 17.225 1.41759C18.3925 2.32009 21.2838 4.85635 22.8963 8.89885C23.4864 10.3628 23.8477 11.9088 23.9675 13.4826L27.5375 17.7651C27.7323 18.0005 27.8709 18.2771 27.9428 18.5741C28.0147 18.871 28.018 19.1804 27.9525 19.4788ZM12.4288 23.0001H19.5713C22.2113 18.3076 22.705 13.8151 21.0388 9.6401C19.5688 5.9551 16.8113 3.62509 16 3.00009C15.1863 3.62509 12.4288 5.9551 10.9588 9.6401C9.295 13.8151 9.78875 18.3076 12.4288 23.0001ZM10.5538 23.7314C9.20792 21.2855 8.39125 18.8818 8.10375 16.5201L6 19.0451L7.545 26.0001L7.5675 25.9839L10.5538 23.7314ZM26 19.0451L23.8963 16.5201C23.6113 18.8768 22.7963 21.2805 21.4513 23.7314L24.4325 25.9814L24.455 25.9976L26 19.0451Z" fill="url(#paint0_linear_33_974)"/>
<defs>
<linearGradient id="paint0_linear_33_974" x1="16" y1="0.998535" x2="16" y2="29.0001" gradientUnits="userSpaceOnUse">
<stop stop-color="#FF6262"/>
<stop offset="0.515"/>
<stop offset="1" stop-color="#5768FF"/>
</linearGradient>
</defs>
</svg>
