<svg width="19" height="18" viewBox="0 0 19 18" fill="none" xmlns="http://www.w3.org/2000/svg">
<path d="M8.97763 1.213C9.17503 0.754605 9.82497 0.754605 10.0224 1.213L12.0702 5.96835C12.1526 6.15955 12.3328 6.29048 12.5401 6.30971L17.6955 6.78786C18.1925 6.83395 18.3933 7.45208 18.0184 7.78147L14.1286 11.1986C13.9722 11.336 13.9033 11.5478 13.9491 11.7509L15.0875 16.8018C15.1972 17.2887 14.6714 17.6707 14.2423 17.4159L9.79038 14.7724C9.61138 14.6661 9.38862 14.6661 9.20962 14.7724L4.75774 17.4159C4.3286 17.6707 3.80279 17.2887 3.91252 16.8018L5.05089 11.7509C5.09666 11.5478 5.02782 11.336 4.87142 11.1986L0.981642 7.78147C0.606687 7.45208 0.807528 6.83395 1.30449 6.78786L6.45992 6.30971C6.6672 6.29048 6.84742 6.15955 6.92976 5.96835L8.97763 1.213Z" fill="url(#paint0_linear_18_797)"/>
<defs>
<linearGradient id="paint0_linear_18_797" x1="9.5" y1="0" x2="9.5" y2="20" gradientUnits="userSpaceOnUse">
<stop stop-color="#FF6262"/>
<stop offset="0.515"/>
<stop offset="1" stop-color="#5768FF"/>
</linearGradient>
</defs>
</svg>
