<svg width="20" height="21" viewBox="0 0 20 21" fill="none" xmlns="http://www.w3.org/2000/svg">
<path d="M10.0117 0.516113C4.50572 0.516113 0.0234844 4.99449 0.0214844 10.5005C0.0204844 12.2605 0.481469 13.9787 1.35547 15.4927L0 20.5161L5.23242 19.2798C6.69142 20.0758 8.33386 20.4936 10.0059 20.4946H10.0098C15.5148 20.4946 19.995 16.0153 19.998 10.5103C20 7.84125 18.9622 5.33185 17.0762 3.44385C15.1902 1.55685 12.6837 0.517113 10.0117 0.516113ZM10.0098 2.51611C12.1458 2.51711 14.1531 3.34991 15.6621 4.85791C17.1711 6.36791 18 8.3743 17.998 10.5083C17.996 14.9123 14.4138 18.4946 10.0078 18.4946C8.67481 18.4936 7.35441 18.1589 6.19141 17.5239L5.51758 17.1567L4.77344 17.3325L2.80469 17.7974L3.28516 16.0122L3.50195 15.2114L3.08789 14.4927C2.38989 13.2847 2.02048 11.9035 2.02148 10.5005C2.02348 6.09849 5.60677 2.51611 10.0098 2.51611ZM6.47656 5.89111C6.30956 5.89111 6.03955 5.95361 5.81055 6.20361C5.58155 6.45261 4.93555 7.05569 4.93555 8.28369C4.93555 9.51169 5.83008 10.6987 5.95508 10.8657C6.07908 11.0317 7.68175 13.6313 10.2188 14.6313C12.3268 15.4623 12.7549 15.2983 13.2129 15.2563C13.6709 15.2153 14.6904 14.6538 14.8984 14.0708C15.1064 13.4878 15.1069 12.9863 15.0449 12.8833C14.9829 12.7793 14.8164 12.7173 14.5664 12.5923C14.3174 12.4673 13.0903 11.8647 12.8613 11.7817C12.6323 11.6987 12.4648 11.6567 12.2988 11.9067C12.1328 12.1567 11.6558 12.7173 11.5098 12.8833C11.3638 13.0503 11.2188 13.0728 10.9688 12.9478C10.7188 12.8218 9.91494 12.5575 8.96094 11.7075C8.21894 11.0465 7.71827 10.231 7.57227 9.98096C7.42727 9.73196 7.55859 9.59519 7.68359 9.47119C7.79559 9.35919 7.93164 9.17969 8.05664 9.03369C8.18064 8.88769 8.22364 8.78367 8.30664 8.61767C8.38964 8.45167 8.34716 8.30517 8.28516 8.18017C8.22316 8.05517 7.73763 6.82261 7.51563 6.32861C7.32863 5.91361 7.13113 5.90397 6.95313 5.89697C6.80813 5.89097 6.64256 5.89111 6.47656 5.89111Z" fill="#27E727"/>
</svg>
