<svg width="24" height="25" viewBox="0 0 24 25" fill="none" xmlns="http://www.w3.org/2000/svg">
<path d="M15.5306 9.58434L13.0603 12.0537L15.5306 14.5231C15.6003 14.5928 15.6556 14.6755 15.6933 14.7665C15.731 14.8576 15.7504 14.9552 15.7504 15.0537C15.7504 15.1523 15.731 15.2498 15.6933 15.3409C15.6556 15.4319 15.6003 15.5147 15.5306 15.5843C15.4609 15.654 15.3782 15.7093 15.2872 15.747C15.1961 15.7847 15.0986 15.8041 15 15.8041C14.9015 15.8041 14.8039 15.7847 14.7128 15.747C14.6218 15.7093 14.5391 15.654 14.4694 15.5843L12 13.114L9.53063 15.5843C9.46095 15.654 9.37822 15.7093 9.28718 15.747C9.19613 15.7847 9.09855 15.8041 9 15.8041C8.90146 15.8041 8.80388 15.7847 8.71283 15.747C8.62179 15.7093 8.53906 15.654 8.46938 15.5843C8.3997 15.5147 8.34442 15.4319 8.30671 15.3409C8.269 15.2498 8.24959 15.1523 8.24959 15.0537C8.24959 14.9552 8.269 14.8576 8.30671 14.7665C8.34442 14.6755 8.3997 14.5928 8.46938 14.5231L10.9397 12.0537L8.46938 9.58434C8.32865 9.44361 8.24959 9.25273 8.24959 9.05371C8.24959 8.85469 8.32865 8.66382 8.46938 8.52309C8.61011 8.38236 8.80098 8.30329 9 8.30329C9.19903 8.30329 9.3899 8.38236 9.53063 8.52309L12 10.9934L14.4694 8.52309C14.5391 8.4534 14.6218 8.39813 14.7128 8.36042C14.8039 8.3227 14.9015 8.30329 15 8.30329C15.0986 8.30329 15.1961 8.3227 15.2872 8.36042C15.3782 8.39813 15.4609 8.4534 15.5306 8.52309C15.6003 8.59277 15.6556 8.67549 15.6933 8.76654C15.731 8.85758 15.7504 8.95516 15.7504 9.05371C15.7504 9.15226 15.731 9.24984 15.6933 9.34088C15.6556 9.43193 15.6003 9.51465 15.5306 9.58434ZM21.75 12.0537C21.75 13.9821 21.1782 15.8671 20.1068 17.4705C19.0355 19.0739 17.5127 20.3236 15.7312 21.0615C13.9496 21.7995 11.9892 21.9926 10.0979 21.6164C8.20656 21.2402 6.46928 20.3116 5.10571 18.948C3.74215 17.5844 2.81355 15.8472 2.43735 13.9558C2.06114 12.0645 2.25422 10.1041 2.99218 8.32255C3.73013 6.54097 4.97982 5.01823 6.58319 3.94688C8.18657 2.87554 10.0716 2.30371 12 2.30371C14.585 2.30644 17.0634 3.33455 18.8913 5.16243C20.7192 6.99032 21.7473 9.46869 21.75 12.0537ZM20.25 12.0537C20.25 10.422 19.7661 8.82696 18.8596 7.47026C17.9531 6.11355 16.6646 5.05613 15.1571 4.4317C13.6497 3.80728 11.9909 3.6439 10.3905 3.96223C8.79017 4.28056 7.32016 5.0663 6.16637 6.22008C5.01259 7.37386 4.22685 8.84387 3.90853 10.4442C3.5902 12.0446 3.75358 13.7034 4.378 15.2108C5.00242 16.7183 6.05984 18.0068 7.41655 18.9133C8.77326 19.8199 10.3683 20.3037 12 20.3037C14.1873 20.3012 16.2843 19.4312 17.8309 17.8846C19.3775 16.338 20.2475 14.241 20.25 12.0537Z" fill="url(#paint0_linear_47_340)"/>
<defs>
<linearGradient id="paint0_linear_47_340" x1="12" y1="2.30371" x2="12" y2="21.8037" gradientUnits="userSpaceOnUse">
<stop stop-color="#FF6262"/>
<stop offset="0.515"/>
<stop offset="1" stop-color="#5768FF"/>
</linearGradient>
</defs>
</svg>
